<svg width="244" height="107" viewBox="0 0 244 107" fill="none" xmlns="http://www.w3.org/2000/svg">
<path d="M177.25 60H195.732C198.89 60 201.862 61.4916 203.749 64.0233L218.251 83.4767C220.138 86.0084 223.11 87.5 226.268 87.5H243.75" stroke="#2C3551" stroke-width="3"/>
<path d="M0.25 25.5H18.7318C21.8896 25.5 24.8619 26.9916 26.7492 29.5233L41.2508 48.9767C43.1381 51.5084 46.1104 53 49.2682 53H66.75" stroke="#2C3551" stroke-width="3"/>
<path d="M93.684 51.196L103.572 21.148H120.276L96.372 89.5H77.172L52.5 21.148H69.876L79.86 51.196C82.996 60.988 85.332 68.988 86.868 75.196C89.108 66.428 91.38 58.428 93.684 51.196ZM149.339 91.036C139.803 91.036 132.443 88.924 127.259 84.7C122.075 80.476 119.451 74.588 119.387 67.036H135.131C135.195 71.26 136.411 74.204 138.779 75.868C141.211 77.532 144.923 78.364 149.915 78.364C157.659 78.364 161.531 75.74 161.531 70.492C161.531 68.188 160.667 66.492 158.939 65.404C157.275 64.252 154.043 63.228 149.243 62.332L143.675 61.276C128.443 58.716 120.827 51.58 120.827 39.868C120.827 33.66 123.131 28.732 127.739 25.084C132.411 21.436 139.003 19.612 147.515 19.612C156.603 19.612 163.547 21.532 168.347 25.372C173.147 29.212 175.707 34.716 176.027 41.884H160.667C160.475 38.556 159.355 36.124 157.307 34.588C155.323 33.052 152.155 32.284 147.803 32.284C140.827 32.284 137.339 34.588 137.339 39.196C137.339 41.5 138.171 43.26 139.835 44.476C141.563 45.692 144.603 46.716 148.955 47.548L154.715 48.604C162.971 50.076 168.955 52.476 172.667 55.804C176.443 59.068 178.331 63.612 178.331 69.436C178.331 76.412 175.771 81.756 170.651 85.468C165.531 89.18 158.427 91.036 149.339 91.036Z" fill="#2C3551"/>
</svg>
